<?xml version="1.0" encoding="iso-8859-1"?>
<!-- Generator: Adobe Illustrator 19.0.0, SVG Export Plug-In . SVG Version: 6.00 Build 0)  -->
<svg version="1.1" id="Layer_1" xmlns="http://www.w3.org/2000/svg" xmlns:xlink="http://www.w3.org/1999/xlink" x="0px" y="0px"
	 viewBox="0 0 512 512" style="enable-background:new 0 0 512 512;" xml:space="preserve">
<circle style="fill:#CD2900;" cx="256" cy="256" r="256"/>
<path style="fill:#AB2400;" d="M256,0c-11.317,0-22.461,0.744-33.391,2.167C348.216,18.53,445.217,125.933,445.217,256
	s-97.002,237.47-222.609,253.833C233.539,511.256,244.683,512,256,512c141.385,0,256-114.616,256-256S397.385,0,256,0z"/>
<path style="fill:#FFFFFF;" d="M256,401.21c-53.823,0-108.152-3.063-161.476-9.105c-10.163-1.151-18.287-8.984-19.754-19.05
	c-11.339-77.67-11.339-156.437-0.001-234.111c1.469-10.065,9.593-17.899,19.757-19.049c53.32-6.042,107.649-9.105,161.475-9.105
	s108.154,3.063,161.476,9.105c10.163,1.151,18.287,8.984,19.754,19.049c11.339,77.672,11.339,156.438,0.001,234.112
	c-1.469,10.065-9.593,17.898-19.755,19.049C364.152,398.146,309.823,401.21,256,401.21z"/>
<path style="fill:#CD2900;" d="M207.22,182.98l130.473,68.531c3.617,1.9,3.617,7.079,0,8.979L207.22,329.021
	c-3.377,1.773-7.428-0.676-7.428-4.489V187.469C199.791,183.656,203.844,181.206,207.22,182.98z"/>
<g>
</g>
<g>
</g>
<g>
</g>
<g>
</g>
<g>
</g>
<g>
</g>
<g>
</g>
<g>
</g>
<g>
</g>
<g>
</g>
<g>
</g>
<g>
</g>
<g>
</g>
<g>
</g>
<g>
</g>
</svg>
