<?xml version="1.0" encoding="iso-8859-1"?>
<!-- Generator: Adobe Illustrator 19.0.0, SVG Export Plug-In . SVG Version: 6.00 Build 0)  -->
<svg version="1.1" id="Capa_1" xmlns="http://www.w3.org/2000/svg" xmlns:xlink="http://www.w3.org/1999/xlink" x="0px" y="0px"
	 viewBox="0 0 512 512" style="enable-background:new 0 0 512 512;" xml:space="preserve">
<path style="fill:#13BDF7;" d="M437.02,74.98C388.667,26.629,324.38,0,256,0l-80,256l80,256c68.38,0,132.667-26.629,181.02-74.98
	C485.371,388.667,512,324.38,512,256S485.371,123.333,437.02,74.98z"/>
<path style="fill:#65EAFF;" d="M74.98,74.98C26.629,123.333,0,187.62,0,256c0,46.687,12.625,92.155,36.569,131.909l-20.758,96.006
	l12.273,12.273l96.006-20.758C163.844,499.375,209.313,512,256,512V0C187.62,0,123.333,26.629,74.98,74.98z"/>
<path style="fill:#B2F5FF;" d="M256,60l-80,196l80,196c108.248,0,196-87.752,196-196S364.248,60,256,60z"/>
<path style="fill:#FFFFFF;" d="M60,256c0,108.248,87.752,196,196,196V60C147.752,60,60,147.752,60,256z"/>
<path style="fill:#FF3CAD;" d="M256,90l-80,166l80,166c91.679,0,166-74.32,166-166S347.679,90,256,90z"/>
<path style="fill:#FE6192;" d="M90,256c0,91.68,74.321,166,166,166V90C164.321,90,90,164.32,90,256z"/>
<g>
	<rect x="241" y="362" style="fill:#FFFFFF;" width="30" height="30"/>
	<path style="fill:#FFFFFF;" d="M271,332h-30v-30.129l53.253-43.371C308.726,246.805,317,229.505,317,211c0-33.636-27.364-61-61-61
		s-61,27.364-61,61h-30c0-50.178,40.822-91,91-91s91,40.822,91,91c0,27.609-12.337,53.414-33.846,70.798L271,316.129V332z"/>
</g>
<g>
</g>
<g>
</g>
<g>
</g>
<g>
</g>
<g>
</g>
<g>
</g>
<g>
</g>
<g>
</g>
<g>
</g>
<g>
</g>
<g>
</g>
<g>
</g>
<g>
</g>
<g>
</g>
<g>
</g>
</svg>
